<svg width="180" height="180" viewBox="0 0 180 180" fill="none" xmlns="http://www.w3.org/2000/svg">
  <!-- Background -->
  <rect width="180" height="180" rx="20" fill="#1a1a1a"/>
  
  <!-- Hockey Puck -->
  <circle cx="90" cy="70" r="25" fill="#333" stroke="#646cff" stroke-width="3"/>
  <circle cx="90" cy="70" r="15" fill="#646cff"/>
  
  <!-- Hockey Stick -->
  <path d="M60 120 L85 95 L88 98 L90 96 L92 98 L95 95 L120 120" stroke="#646cff" stroke-width="4" fill="none" stroke-linecap="round"/>
  <rect x="85" y="115" width="10" height="25" rx="5" fill="#646cff"/>
  
  <!-- Stats Lines -->
  <rect x="30" y="140" width="30" height="3" rx="1.5" fill="#646cff" opacity="0.8"/>
  <rect x="30" y="148" width="20" height="3" rx="1.5" fill="#646cff" opacity="0.6"/>
  <rect x="30" y="156" width="25" height="3" rx="1.5" fill="#646cff" opacity="0.7"/>
  
  <rect x="120" y="140" width="30" height="3" rx="1.5" fill="#646cff" opacity="0.8"/>
  <rect x="130" y="148" width="20" height="3" rx="1.5" fill="#646cff" opacity="0.6"/>
  <rect x="125" y="156" width="25" height="3" rx="1.5" fill="#646cff" opacity="0.7"/>
  
  <!-- Title -->
  <text x="90" y="35" text-anchor="middle" fill="#646cff" font-family="Arial, sans-serif" font-size="14" font-weight="bold">HOCKEY</text>
  <text x="90" y="50" text-anchor="middle" fill="#646cff" font-family="Arial, sans-serif" font-size="14" font-weight="bold">STATS</text>
</svg>