<svg width="192" height="192" viewBox="0 0 192 192" fill="none" xmlns="http://www.w3.org/2000/svg">
  <!-- Background -->
  <rect width="192" height="192" rx="24" fill="#1a1a1a"/>
  
  <!-- Hockey Puck -->
  <circle cx="96" cy="75" r="28" fill="#333" stroke="#646cff" stroke-width="3"/>
  <circle cx="96" cy="75" r="18" fill="#646cff"/>
  
  <!-- Hockey Stick -->
  <path d="M64 128 L91 101 L94 104 L96 102 L98 104 L101 101 L128 128" stroke="#646cff" stroke-width="4" fill="none" stroke-linecap="round"/>
  <rect x="91" y="123" width="10" height="28" rx="5" fill="#646cff"/>
  
  <!-- Stats Lines -->
  <rect x="32" y="148" width="32" height="3" rx="1.5" fill="#646cff" opacity="0.8"/>
  <rect x="32" y="156" width="22" height="3" rx="1.5" fill="#646cff" opacity="0.6"/>
  <rect x="32" y="164" width="27" height="3" rx="1.5" fill="#646cff" opacity="0.7"/>
  
  <rect x="128" y="148" width="32" height="3" rx="1.5" fill="#646cff" opacity="0.8"/>
  <rect x="138" y="156" width="22" height="3" rx="1.5" fill="#646cff" opacity="0.6"/>
  <rect x="133" y="164" width="27" height="3" rx="1.5" fill="#646cff" opacity="0.7"/>
  
  <!-- Title -->
  <text x="96" y="38" text-anchor="middle" fill="#646cff" font-family="Arial, sans-serif" font-size="16" font-weight="bold">HOCKEY</text>
  <text x="96" y="54" text-anchor="middle" fill="#646cff" font-family="Arial, sans-serif" font-size="16" font-weight="bold">STATS</text>
</svg>